<svg width="40" height="40" viewBox="0 0 40 40" fill="none" xmlns="http://www.w3.org/2000/svg">
<rect width="40" height="40" rx="12" fill="url(#paint0_linear_48_2269)"/>
<g clip-path="url(#clip0_48_2269)">
<path d="M27.3463 18.7576C27.2261 18.7082 27.0937 18.6966 26.9667 18.7243C26.8398 18.752 26.7243 18.8177 26.6356 18.9127L25.3369 20.2824H24.6132V19.4767C24.6132 19.2587 24.5703 19.0428 24.4868 18.8413C24.4034 18.6398 24.2811 18.4568 24.1269 18.3026C23.9727 18.1484 23.7896 18.0261 23.5882 17.9426C23.3867 17.8592 23.1708 17.8162 22.9527 17.8162H21.8479C22.578 17.4286 23.0755 16.6597 23.0755 15.7681C23.0755 14.4823 22.0417 13.4421 20.756 13.4421C19.9354 13.4421 19.2182 13.8621 18.7983 14.5082C18.6188 13.9717 18.2752 13.5052 17.816 13.1747C17.3568 12.8442 16.8054 12.6665 16.2397 12.6667C14.7407 12.6667 13.526 13.8879 13.526 15.3804C13.526 16.453 14.1527 17.3833 15.0573 17.8162H13.9072C13.4668 17.8162 13.0445 17.9912 12.7331 18.3026C12.4216 18.614 12.2467 19.0364 12.2467 19.4767V25.6729C12.2467 26.1133 12.4216 26.5357 12.7331 26.8471C13.0445 27.1585 13.4668 27.3334 13.9072 27.3334H22.9527C23.3931 27.3334 23.8155 27.1585 24.1269 26.8471C24.4383 26.5357 24.6132 26.1133 24.6132 25.6729V24.6695H25.3433L26.6356 26.0393C26.8417 26.2454 27.1298 26.2848 27.3463 26.1943C27.4665 26.1465 27.5696 26.0636 27.6422 25.9565C27.7147 25.8493 27.7535 25.7229 27.7533 25.5935V19.352C27.7533 19.0936 27.5918 18.8545 27.3463 18.7576ZM20.756 14.6309C21.3827 14.6309 21.8867 15.1413 21.8867 15.7681C21.8867 16.3948 21.3827 16.8988 20.756 16.8988C20.4552 16.8988 20.1668 16.7793 19.9542 16.5666C19.7415 16.354 19.622 16.0656 19.622 15.7648C19.622 15.4641 19.7415 15.1757 19.9542 14.963C20.1668 14.7504 20.4552 14.6309 20.756 14.6309ZM14.9087 15.3804C14.9087 14.6503 15.5031 14.0559 16.2397 14.0559C16.9698 14.0559 17.5577 14.6503 17.5577 15.3804C17.5577 16.117 16.9698 16.7049 16.2397 16.7049C15.5031 16.7049 14.9087 16.117 14.9087 15.3804ZM18.6173 16.6855C18.8241 17.1701 19.1988 17.5707 19.6576 17.8162H17.422C17.926 17.5707 18.346 17.1766 18.6173 16.6855ZM20.2197 23.1983L18.2749 24.6004C17.7645 24.9687 17.0538 24.6069 17.0538 23.9801V21.1631C17.0538 20.5364 17.7645 20.1745 18.2749 20.5428L20.2197 21.9513C20.6461 22.255 20.6461 22.8882 20.2197 23.1983Z" fill="white"/>
</g>
<defs>
<linearGradient id="paint0_linear_48_2269" x1="-0.0130654" y1="20.0041" x2="40.0017" y2="20.0041" gradientUnits="userSpaceOnUse">
<stop stop-color="#D5A331"/>
<stop offset="0.29" stop-color="#F9DF7C"/>
<stop offset="0.67" stop-color="#CB8E17"/>
<stop offset="1" stop-color="#D8A937"/>
</linearGradient>
<clipPath id="clip0_48_2269">
<rect width="16" height="16" fill="white" transform="translate(12 12)"/>
</clipPath>
</defs>
</svg>
