<svg width="40" height="40" viewBox="0 0 40 40" fill="none" xmlns="http://www.w3.org/2000/svg">
<rect width="40" height="40" rx="12" fill="url(#paint0_linear_48_472)"/>
<g clip-path="url(#clip0_48_472)">
<path d="M16.998 13.9396C17.2567 13.9396 17.4663 13.73 17.4663 13.4714V12.4682C17.4435 11.848 16.5527 11.8477 16.5298 12.4682V13.4714C16.5298 13.73 16.7394 13.9396 16.998 13.9396ZM12.4838 17.4507H13.487C14.1072 17.4279 14.1076 16.5371 13.487 16.5141H12.4838C11.8636 16.537 11.8633 17.4277 12.4838 17.4507ZM14.539 15.1854C14.9937 15.6077 15.6239 14.9781 15.2012 14.5231L14.1371 13.4592C13.6825 13.0369 13.0523 13.6664 13.4749 14.1215L14.539 15.1854ZM23.017 26.0441C22.7584 26.0441 22.5487 26.2538 22.5487 26.5124V27.5155C22.5715 28.1357 23.4623 28.1361 23.4853 27.5155V26.5124C23.4853 26.2538 23.2756 26.0441 23.017 26.0441ZM27.5312 22.5331H26.528C25.9078 22.5559 25.9074 23.4467 26.528 23.4696H27.5312C28.1514 23.4468 28.1517 22.556 27.5312 22.5331ZM25.476 24.7981C25.0213 24.3758 24.3912 25.0053 24.8138 25.4605L25.8779 26.5243C26.3326 26.9466 26.9628 26.3171 26.5401 25.8619L25.476 24.7981ZM22.3003 16.1997L23.0498 16.9491C23.3092 17.2086 23.7304 17.2086 23.9896 16.9493L24.7393 16.1996C24.8419 16.0973 24.9079 15.9639 24.9269 15.8201L23.7993 14.6926C21.5664 12.4209 17.6071 13.9463 17.4454 17.0921C17.4454 17.3507 17.6551 17.5603 17.9137 17.5603H19.1169C19.3755 17.5603 19.5851 17.3507 19.5851 17.0921C19.7631 15.8137 21.3883 15.2702 22.3003 16.1997Z" fill="white"/>
<path d="M26.9085 13.0906C25.5793 11.7613 23.4921 11.6473 22.0323 12.748C22.9798 12.9203 23.8934 13.4154 24.5934 14.1623C25.8233 14.4006 26.3036 15.9782 25.4015 16.862L24.652 17.6115C24.0273 18.2365 23.0126 18.2365 22.3876 17.6115L21.6381 16.862C21.2679 16.4836 20.612 16.6966 20.5181 17.1942C20.4941 17.5271 20.3533 17.8281 20.1368 18.0568C21.1756 20.3734 24.3762 20.9467 26.1513 19.1185C26.1513 19.1185 26.9085 18.3613 26.9085 18.3613C28.3631 16.9067 28.3631 14.5451 26.9085 13.0906ZM22.1013 22.4234H20.8981C20.6395 22.4234 20.4298 22.633 20.4298 22.8917C20.2513 24.1703 18.6272 24.7135 17.7147 23.7841L16.9652 23.0346C16.7058 22.7752 16.2846 22.7752 16.0254 23.0345L15.2758 23.7841C15.1731 23.8865 15.1072 24.0199 15.0881 24.1636L16.2157 25.2912C18.4486 27.5629 22.4079 26.0375 22.5696 22.8917C22.5696 22.633 22.3599 22.4234 22.1013 22.4234Z" fill="white"/>
<path d="M15.4216 25.8215C14.1917 25.5832 13.7115 24.0056 14.6135 23.1218L15.363 22.3723C15.9877 21.7473 17.0024 21.7473 17.6274 22.3723L18.3769 23.1218C18.7471 23.5002 19.4031 23.2871 19.4969 22.7896C19.5209 22.4566 19.6617 22.1557 19.8782 21.927C18.8395 19.6105 15.6388 19.037 13.8637 20.8653C13.8637 20.8652 13.1065 21.6225 13.1065 21.6225C9.92622 24.9845 14.2451 29.9054 17.9827 27.2358C17.0353 27.0635 16.1216 26.5684 15.4216 25.8215Z" fill="white"/>
</g>
<defs>
<linearGradient id="paint0_linear_48_472" x1="-0.0130654" y1="20.0041" x2="40.0017" y2="20.0041" gradientUnits="userSpaceOnUse">
<stop stop-color="#D5A331"/>
<stop offset="0.29" stop-color="#F9DF7C"/>
<stop offset="0.67" stop-color="#CB8E17"/>
<stop offset="1" stop-color="#D8A937"/>
</linearGradient>
<clipPath id="clip0_48_472">
<rect width="16" height="16" fill="white" transform="translate(12 12)"/>
</clipPath>
</defs>
</svg>
