<svg width="40" height="40" viewBox="0 0 40 40" fill="none" xmlns="http://www.w3.org/2000/svg">
<rect width="40" height="40" rx="12" fill="url(#paint0_linear_48_2279)"/>
<g clip-path="url(#clip0_48_2279)">
<path d="M20.1667 13.3333H19.4334C19.2134 12.5667 18.5067 12 17.6667 12C16.8267 12 16.12 12.5667 15.9 13.3333H15.1667C14.8934 13.3333 14.6667 13.56 14.6667 13.8333V14.8333C14.6667 15.4733 15.1934 16 15.8334 16H19.5C20.14 16 20.6667 15.4733 20.6667 14.8333V13.8333C20.6667 13.56 20.44 13.3333 20.1667 13.3333Z" fill="white"/>
<path d="M21.5 14H21.3333V14.8333C21.3333 15.8467 20.5133 16.6667 19.5 16.6667H15.8333C14.82 16.6667 14 15.8467 14 14.8333V14H13.8333C12.82 14 12 14.82 12 15.8333V24.1667C12 25.18 12.82 26 13.8333 26H18.7533L18.9 25.18C18.9667 24.8067 19.14 24.4733 19.4067 24.2L19.94 23.6667H14.5C14.2267 23.6667 14 23.44 14 23.1667C14 22.8933 14.2267 22.6667 14.5 22.6667H20.8333C20.8667 22.6667 20.8933 22.6667 20.9267 22.68H20.9333L23.3333 20.28V15.8333C23.3333 14.82 22.5133 14 21.5 14ZM20.8333 21.5H14.5C14.2267 21.5 14 21.2733 14 21C14 20.7267 14.2267 20.5 14.5 20.5H20.8333C21.1067 20.5 21.3333 20.7267 21.3333 21C21.3333 21.2733 21.1067 21.5 20.8333 21.5ZM20.8333 19.3333H14.5C14.2267 19.3333 14 19.1067 14 18.8333C14 18.56 14.2267 18.3333 14.5 18.3333H20.8333C21.1067 18.3333 21.3333 18.56 21.3333 18.8333C21.3333 19.1067 21.1067 19.3333 20.8333 19.3333ZM20.3513 28C20.2782 28.0002 20.206 27.9843 20.1397 27.9535C20.0734 27.9226 20.0147 27.8776 19.9678 27.8216C19.9208 27.7655 19.8868 27.6998 19.8681 27.6292C19.8493 27.5585 19.8463 27.4846 19.8593 27.4127L20.2127 25.4093C20.2306 25.3084 20.279 25.2153 20.3513 25.1427L25.3013 20.1933C25.9093 19.584 26.5067 19.7487 26.8333 20.0753L27.658 20.9C27.7663 21.0083 27.8523 21.137 27.9109 21.2785C27.9696 21.4201 27.9998 21.5718 27.9998 21.725C27.9998 21.8782 27.9696 22.0299 27.9109 22.1715C27.8523 22.313 27.7663 22.4417 27.658 22.55L22.708 27.5C22.6357 27.5729 22.5425 27.6214 22.4413 27.6387L20.438 27.992C20.4094 27.9973 20.3804 28 20.3513 28Z" fill="white"/>
</g>
<defs>
<linearGradient id="paint0_linear_48_2279" x1="-0.0130654" y1="20.0041" x2="40.0017" y2="20.0041" gradientUnits="userSpaceOnUse">
<stop stop-color="#D5A331"/>
<stop offset="0.29" stop-color="#F9DF7C"/>
<stop offset="0.67" stop-color="#CB8E17"/>
<stop offset="1" stop-color="#D8A937"/>
</linearGradient>
<clipPath id="clip0_48_2279">
<rect width="16" height="16" fill="white" transform="translate(12 12)"/>
</clipPath>
</defs>
</svg>
