<svg width="40" height="40" viewBox="0 0 40 40" fill="none" xmlns="http://www.w3.org/2000/svg">
<rect width="40" height="40" rx="12" fill="url(#paint0_linear_48_473)"/>
<g clip-path="url(#clip0_48_473)">
<path fill-rule="evenodd" clip-rule="evenodd" d="M22.493 17.0106V17.1274C22.4931 17.3108 22.5474 17.49 22.649 17.6426C22.7506 17.7951 22.895 17.9143 23.0642 17.985C23.2333 18.0558 23.4195 18.075 23.5995 18.0403C23.7795 18.0055 23.9453 17.9184 24.0759 17.7898L24.8677 17.0106H26.6977C27.0431 17.0106 27.3743 16.8734 27.6185 16.6292C27.8628 16.3849 28 16.0537 28 15.7083V13.3023C28 12.9569 27.8628 12.6257 27.6185 12.3814C27.3743 12.1372 27.0431 12 26.6977 12H22.2325C21.8872 12 21.5561 12.1369 21.312 12.3818C21.1909 12.5025 21.0948 12.646 21.0293 12.804C20.9638 12.962 20.9301 13.1313 20.9302 13.3023V15.7083C20.93 15.8794 20.9636 16.0488 21.0289 16.2069C21.0943 16.365 21.1902 16.5086 21.3112 16.6296C21.4322 16.7506 21.5758 16.8465 21.7339 16.9119C21.892 16.9772 22.0615 17.0108 22.2325 17.0106H22.493ZM15.907 28H24.093C24.241 28 24.383 27.9412 24.4877 27.8365C24.5923 27.7319 24.6511 27.5899 24.6511 27.4419C24.6511 27.2938 24.5923 27.1519 24.4877 27.0472C24.383 26.9425 24.241 26.8837 24.093 26.8837H15.907C15.7589 26.8837 15.617 26.9425 15.5123 27.0472C15.4076 27.1519 15.3488 27.2938 15.3488 27.4419C15.3488 27.5899 15.4076 27.7319 15.5123 27.8365C15.617 27.9412 15.7589 28 15.907 28Z" fill="white"/>
<path fill-rule="evenodd" clip-rule="evenodd" d="M20.2634 12.7441H14.0465C13.504 12.7441 12.9831 12.96 12.5991 13.3432C12.2157 13.7274 12.0002 14.2479 12 14.7907V22.9767C12 23.5192 12.2158 24.0401 12.5991 24.4241C12.9832 24.8075 13.5038 25.023 14.0465 25.0232H25.9535C26.496 25.0232 27.0169 24.8074 27.4009 24.4241C27.7843 24.04 27.9998 23.5195 28 22.9767V17.2874C27.6332 17.5895 27.1728 17.7547 26.6977 17.7547H25.1721L24.5976 18.3203C24.3991 18.5157 24.155 18.6584 23.8874 18.7356C23.6198 18.8129 23.3371 18.8221 23.0651 18.7625C22.793 18.703 22.5401 18.5765 22.3292 18.3946C22.1184 18.2126 21.9562 17.9809 21.8575 17.7205C21.388 17.6325 20.964 17.3833 20.6588 17.0159C20.3536 16.6484 20.1864 16.1859 20.186 15.7082V13.3023C20.186 13.1118 20.2128 12.9242 20.2634 12.7441ZM19.4575 20.1629C18.9462 20.7218 18.2117 21.0731 17.3953 21.0731C16.579 21.0731 15.8445 20.7218 15.3332 20.1629C15.1034 20.2521 14.8841 20.3662 14.6791 20.503C14.1388 20.8714 13.8605 21.3514 13.8605 21.8433V22.2973C13.8602 22.4097 13.8821 22.5211 13.925 22.6251C13.9679 22.7291 14.0309 22.8235 14.1105 22.9031C14.19 22.9826 14.2845 23.0456 14.3884 23.0885C14.4924 23.1314 14.6038 23.1534 14.7163 23.1531H20.0744C20.1868 23.1532 20.2982 23.1311 20.402 23.0881C20.5059 23.0452 20.6003 22.9821 20.6798 22.9026C20.7593 22.8231 20.8223 22.7288 20.8653 22.6249C20.9083 22.521 20.9303 22.4097 20.9302 22.2973V21.8433C20.9302 21.3514 20.6519 20.8714 20.1116 20.503C19.9066 20.3662 19.6873 20.2521 19.4575 20.1629ZM17.3953 16.2359C16.9904 16.2357 16.5945 16.3557 16.2577 16.5806C15.9209 16.8055 15.6584 17.1252 15.5033 17.4993C15.3483 17.8734 15.3077 18.2851 15.3867 18.6823C15.4656 19.0795 15.6606 19.4444 15.947 19.7307C16.2333 20.0171 16.5982 20.2121 16.9954 20.2911C17.3926 20.37 17.8043 20.3294 18.1784 20.1744C18.5525 20.0193 18.8722 19.7568 19.0971 19.42C19.322 19.0833 19.442 18.6873 19.4419 18.2824C19.4415 17.7397 19.2257 17.2194 18.842 16.8357C18.4583 16.452 17.938 16.2363 17.3953 16.2359ZM17.3648 25.7674L16.8655 27.2654C16.8379 27.3494 16.8305 27.4386 16.844 27.5259C16.8576 27.6132 16.8915 27.6961 16.9432 27.7677C16.9949 27.8394 17.0628 27.8978 17.1414 27.9381C17.22 27.9785 17.307 27.9997 17.3953 28H22.6047C22.6931 28 22.7803 27.979 22.8591 27.9388C22.9378 27.8985 23.0059 27.8401 23.0576 27.7683C23.1094 27.6966 23.1433 27.6136 23.1567 27.5262C23.1701 27.4387 23.1625 27.3494 23.1345 27.2654L22.6352 25.7674H17.3648Z" fill="white"/>
</g>
<defs>
<linearGradient id="paint0_linear_48_473" x1="-0.0130654" y1="20.0041" x2="40.0017" y2="20.0041" gradientUnits="userSpaceOnUse">
<stop stop-color="#D5A331"/>
<stop offset="0.29" stop-color="#F9DF7C"/>
<stop offset="0.67" stop-color="#CB8E17"/>
<stop offset="1" stop-color="#D8A937"/>
</linearGradient>
<clipPath id="clip0_48_473">
<rect width="16" height="16" fill="white" transform="translate(12 12)"/>
</clipPath>
</defs>
</svg>
