<svg width="98" height="35" viewBox="0 0 98 35" fill="none" xmlns="http://www.w3.org/2000/svg">
<g clip-path="url(#clip0_20_940)">
<path d="M-0.537659 24.461H9.43122V21.461H3.0055V10.161H-0.537659V24.461Z" fill="#020E07"/>
<path d="M15.3374 22.461C13.9161 22.461 13.1754 21.221 13.1754 19.361C13.1754 17.501 13.9161 16.241 15.3374 16.241C16.7586 16.241 17.5193 17.501 17.5193 19.361C17.5193 21.221 16.7586 22.461 15.3374 22.461ZM15.3574 24.781C18.6603 24.781 20.8223 22.441 20.8223 19.361C20.8223 16.281 18.6603 13.941 15.3574 13.941C12.0745 13.941 9.8725 16.281 9.8725 19.361C9.8725 22.441 12.0745 24.781 15.3574 24.781Z" fill="#020E07"/>
<path d="M26.5394 28.001C28.0608 28.001 29.402 27.661 30.3028 26.861C31.1235 26.121 31.664 25.001 31.664 23.461V14.221H28.5412V15.321H28.5012C27.9006 14.461 26.9798 13.921 25.6186 13.921C23.0763 13.921 21.3148 16.041 21.3148 19.041C21.3148 22.181 23.4567 23.901 25.7587 23.901C26.9998 23.901 27.7805 23.401 28.3811 22.721H28.4611V23.741C28.4611 24.981 27.8806 25.701 26.4994 25.701C25.4184 25.701 24.8779 25.241 24.6978 24.701H21.535C21.8552 26.841 23.7169 28.001 26.5394 28.001ZM26.5194 21.481C25.2983 21.481 24.4976 20.481 24.4976 18.941C24.4976 17.381 25.2983 16.381 26.5194 16.381C27.8806 16.381 28.6012 17.541 28.6012 18.921C28.6012 20.361 27.9407 21.481 26.5194 21.481Z" fill="#020E07"/>
<path d="M38.085 22.461C36.6637 22.461 35.9231 21.221 35.9231 19.361C35.9231 17.501 36.6637 16.241 38.085 16.241C39.5063 16.241 40.2669 17.501 40.2669 19.361C40.2669 21.221 39.5063 22.461 38.085 22.461ZM38.105 24.781C41.4079 24.781 43.5699 22.441 43.5699 19.361C43.5699 16.281 41.4079 13.941 38.105 13.941C34.8221 13.941 32.6201 16.281 32.6201 19.361C32.6201 22.441 34.8221 24.781 38.105 24.781Z" fill="#020E07"/>
<path d="M44.5223 24.461H47.7852V14.221H44.5223V24.461ZM44.5223 12.801H47.7852V10.161H44.5223V12.801Z" fill="#020E07"/>
<path d="M49.2015 27.841H52.4644V23.401H52.5045C53.1451 24.261 54.0859 24.781 55.4071 24.781C58.0895 24.781 59.871 22.661 59.871 19.341C59.871 16.261 58.2096 13.921 55.4871 13.921C54.0859 13.921 53.085 14.541 52.3844 15.461H52.3243V14.221H49.2015V27.841ZM54.5663 22.261C53.1651 22.261 52.3644 21.121 52.3644 19.461C52.3644 17.801 53.085 16.541 54.5063 16.541C55.9075 16.541 56.5681 17.701 56.5681 19.461C56.5681 21.201 55.8074 22.261 54.5663 22.261Z" fill="#020E07"/>
<path d="M65.1833 24.781C67.8657 24.781 69.8474 23.621 69.8474 21.381C69.8474 18.761 67.7256 18.301 65.924 18.001C64.6228 17.761 63.4618 17.661 63.4618 16.941C63.4618 16.301 64.0823 16.001 64.883 16.001C65.7838 16.001 66.4044 16.281 66.5245 17.201H69.5272C69.367 15.181 67.8056 13.921 64.903 13.921C62.4809 13.921 60.4791 15.041 60.4791 17.201C60.4791 19.601 62.3808 20.081 64.1624 20.381C65.5236 20.621 66.7647 20.721 66.7647 21.641C66.7647 22.301 66.1441 22.661 65.1633 22.661C64.0823 22.661 63.4017 22.161 63.2816 21.141H60.1989C60.2989 23.401 62.1806 24.781 65.1833 24.781Z" fill="#020E07"/>
<path d="M74.2797 24.761C75.701 24.761 76.6018 24.201 77.3425 23.201H77.4025V24.461H80.5253V14.221H77.2624V19.941C77.2624 21.161 76.5818 22.001 75.4608 22.001C74.4199 22.001 73.9194 21.381 73.9194 20.261V14.221H70.6765V20.941C70.6765 23.221 71.9176 24.761 74.2797 24.761Z" fill="#020E07"/>
<path d="M81.944 24.461H85.2069V18.721C85.2069 17.501 85.8074 16.641 86.8283 16.641C87.8092 16.641 88.2696 17.281 88.2696 18.381V24.461H91.5325V18.721C91.5325 17.501 92.113 16.641 93.154 16.641C94.1348 16.641 94.5952 17.281 94.5952 18.381V24.461H97.8581V17.801C97.8581 15.501 96.6971 13.921 94.375 13.921C93.0539 13.921 91.9529 14.481 91.1522 15.721H91.1121C90.5917 14.621 89.5708 13.921 88.2296 13.921C86.7482 13.921 85.7674 14.621 85.1268 15.681H85.0668V14.221H81.944V24.461Z" fill="#020E07"/>
</g>
<defs>
<clipPath id="clip0_20_940">
<rect width="98" height="35" fill="white"/>
</clipPath>
</defs>
</svg>
