<svg width="67" height="84" viewBox="0 0 67 84" fill="none" xmlns="http://www.w3.org/2000/svg">
<path d="M54.5766 24.6154C35.2255 19.1721 34.0168 21.6694 24.0017 18.217C24.6118 18.0329 25.245 17.8717 25.8781 17.7336C37.2861 19.69 42.7542 19.0686 51.8483 22.567C52.7923 23.2114 53.7132 23.8904 54.5881 24.6269L54.5766 24.6154Z" fill="#00196B" fill-opacity="0.4"/>
<path d="M33.2571 11.4849C31.5419 11.4849 30.6555 8.59642 30.6555 5.74245C30.6555 2.88848 31.5534 0 33.2571 0C34.9608 0 35.8587 2.88848 35.8587 5.74245C35.8587 8.59642 34.9608 11.4849 33.2571 11.4849ZM33.2571 1.07023C32.6239 1.07023 31.7145 2.88848 31.7145 5.74245C31.7145 8.59642 32.6239 10.4147 33.2571 10.4147C33.8902 10.4147 34.7996 8.59642 34.7996 5.74245C34.7996 2.88848 33.8902 1.07023 33.2571 1.07023Z" fill="#00196B" fill-opacity="0.4"/>
<path d="M40.3367 17.0893V11.7381C40.3367 11.3008 36.8948 10.9441 33.0844 10.9441C29.2741 10.9441 26.1774 11.3008 26.1774 11.7381V17.0893C26.1774 17.0893 29.0093 16.2493 33.2571 16.2493C37.5049 16.2493 40.3367 17.0893 40.3367 17.0893Z" fill="#00196B" fill-opacity="0.4"/>
<path d="M64.0277 37.4583C58.8359 33.7757 56.6602 32.8896 49.972 30.4729C37.6085 26.261 27.1789 28.413 15.2644 22.1642C15.5177 22.0031 15.7709 21.8535 16.0242 21.6924C29.182 27.0666 37.5279 24.3162 50.4554 29.0114C57.5811 31.6698 60.6432 33.6952 63.3254 35.8817C63.5787 36.3995 63.8089 36.9174 64.0277 37.4468V37.4583Z" fill="#00196B" fill-opacity="0.4"/>
<path d="M66.4451 47.6314C58.2949 39.2191 46.9905 36.1349 35.5364 34.2476C26.4998 33.0623 18.4301 32.7056 9.71582 26.6524C9.90001 26.4798 10.0727 26.2957 10.2569 26.123C19.3165 31.4052 26.9833 31.5203 35.7321 32.602C43.5025 33.8334 57.0171 36.1119 66.3415 46.4C66.3876 46.8028 66.4221 47.2171 66.4566 47.6199L66.4451 47.6314Z" fill="#00196B" fill-opacity="0.4"/>
<path d="M66.2725 54.4095C66.2379 54.7547 66.1804 55.0999 66.1228 55.4337C57.5006 45.6404 43.8478 42.0614 30.8742 40.4848C21.4232 39.4031 12.7549 37.792 5.6062 31.6468C5.74434 31.4396 5.88248 31.244 6.02062 31.0483C20.6519 42.0154 35.6746 35.4444 54.922 45.4333C60.2519 48.1721 64.5342 52.1769 66.2725 54.4095Z" fill="#00196B" fill-opacity="0.4"/>
<path d="M64.7644 60.9344C64.6838 61.1991 64.5917 61.4523 64.4881 61.7055C64.4766 61.6825 64.4536 61.6709 64.4421 61.6479C61.2879 58.0344 54.2197 53.1896 46.7257 50.796C30.4712 45.2031 14.1247 48.5059 2.55554 37.3086C2.65915 37.0785 2.76275 36.8483 2.86635 36.6182C15.1147 47.1709 29.9877 43.4194 45.7817 48.8396C51.1922 50.7614 58.41 53.5348 64.7759 60.9344H64.7644Z" fill="#00196B" fill-opacity="0.4"/>
<path d="M62.3124 66.4007C62.1973 66.6193 62.0822 66.838 61.9441 67.0451C61.9326 67.0336 61.921 67.0221 61.9095 67.0106C58.4791 63.5812 52.6772 59.7721 42.547 56.5499C27.9157 52.0963 12.0296 54.8122 0.552551 43.9487C0.610109 43.6725 0.656155 43.3963 0.713713 43.1201C0.725225 43.1316 0.748249 43.1431 0.759761 43.1546C9.95755 51.3483 25.3256 51.5439 33.6715 52.8443C44.7227 54.9733 54.404 58.23 62.3124 66.3776V66.4007Z" fill="#00196B" fill-opacity="0.4"/>
<path d="M58.9971 71.28C58.8474 71.4642 58.6863 71.6483 58.5366 71.8324C35.7551 55.0884 16.9451 65.0427 0.0230194 51.8086C0.0115078 51.4979 0 51.1987 0 50.8765C17.8085 63.259 37.9308 53.5003 59.0086 71.2915L58.9971 71.28Z" fill="#00196B" fill-opacity="0.4"/>
<path d="M54.6457 75.6647C54.45 75.8258 54.2543 75.9869 54.0586 76.148C32.4167 63.3972 19.5122 70.394 1.68069 60.7044C1.56558 60.3706 1.46197 60.0369 1.36987 59.6917C20.2835 68.5413 34.8342 61.7746 54.6572 75.6532L54.6457 75.6647Z" fill="#00196B" fill-opacity="0.4"/>
<path d="M48.7863 79.6118C48.51 79.7614 48.2337 79.8995 47.9459 80.0376C30.0684 72.1546 21.0548 75.1007 6.65372 70.1638C6.38896 69.807 6.1357 69.4618 5.88245 69.0935C22.3095 73.3054 32.5779 70.5205 48.7863 79.6118Z" fill="#00196B" fill-opacity="0.4"/>
<path d="M39.5424 82.8572C38.8517 82.9838 38.161 83.0988 37.4588 83.1794C34.2356 82.3854 28.8251 81.1425 24.1169 80.4865C22.8621 80.3024 20.5252 80.0032 17.4747 79.4623C16.7494 79.0711 16.0472 78.6568 15.3565 78.2195C24.0593 78.5187 31.7145 79.5544 39.5539 82.8572H39.5424Z" fill="#00196B" fill-opacity="0.4"/>
<path d="M18.8675 71.1997C18.6028 71.2802 18.3265 71.1421 18.2459 70.8774C18.1653 70.6128 18.3035 70.3366 18.5682 70.256C18.833 70.1755 19.1093 70.3136 19.1899 70.5782C19.2704 70.8429 19.1323 71.1191 18.8675 71.1997Z" fill="#00196B" fill-opacity="0.4"/>
<path d="M49.5576 47.9653C49.3158 47.8847 49.1777 47.6315 49.2583 47.3899C49.3389 47.1482 49.5921 47.0101 49.8339 47.0907C50.0756 47.1712 50.2137 47.4244 50.1332 47.6661C50.0526 47.9077 49.7993 48.0458 49.5576 47.9653Z" fill="#00196B" fill-opacity="0.4"/>
<path d="M14.2513 77.7708C14.1823 77.4831 14.3665 77.1954 14.6543 77.1263C14.942 77.0573 15.2298 77.2414 15.2989 77.5291C15.368 77.8168 15.1838 78.1045 14.896 78.1736C14.6082 78.2426 14.3204 78.0585 14.2513 77.7708Z" fill="#00196B" fill-opacity="0.4"/>
<path d="M19.9496 60.2097C20.1108 60.4283 20.0647 60.7276 19.8575 60.8887C19.6388 61.0498 19.3395 61.0038 19.1783 60.7966C19.0172 60.578 19.0632 60.2787 19.2704 60.1176C19.4891 59.9565 19.7885 60.0026 19.9496 60.2097Z" fill="#00196B" fill-opacity="0.4"/>
<path d="M16.4156 35.5826C16.312 35.3755 16.3925 35.1108 16.5997 35.0072C16.807 34.9037 17.0717 34.9842 17.1753 35.1914C17.2789 35.3985 17.1984 35.6632 16.9911 35.7668C16.7839 35.8703 16.5192 35.7898 16.4156 35.5826Z" fill="#00196B" fill-opacity="0.4"/>
<path d="M23.1499 37.1594C23.1959 37.4356 23.0117 37.6887 22.7355 37.7348C22.4592 37.7808 22.2059 37.5967 22.1599 37.3205C22.1138 37.0443 22.298 36.7911 22.5743 36.7451C22.8506 36.6991 23.1038 36.8832 23.1499 37.1594Z" fill="#00196B" fill-opacity="0.4"/>
</svg>
