<svg width="16" height="20" viewBox="0 0 16 20" fill="none" xmlns="http://www.w3.org/2000/svg">
<circle cx="8" cy="12" r="8" fill="url(#paint0_linear_63_2693)"/>
<path d="M7.61516 15.8623C7.58864 15.8623 7.5624 15.8568 7.5381 15.8462C7.51379 15.8356 7.49196 15.82 7.47395 15.8006L3.66651 11.682C3.64113 11.6545 3.6243 11.6203 3.61809 11.5834C3.61188 11.5465 3.61655 11.5086 3.63153 11.4744C3.64652 11.4401 3.67117 11.411 3.70246 11.3905C3.73375 11.37 3.77033 11.3591 3.80772 11.3591H5.64041C5.66793 11.3592 5.69513 11.3651 5.72017 11.3765C5.74521 11.3879 5.76751 11.4045 5.78557 11.4253L7.05803 12.8892C7.19555 12.5952 7.46176 12.1058 7.92891 11.5094C8.61953 10.6276 9.90411 9.33088 12.1019 8.16026C12.1444 8.13764 12.1938 8.13177 12.2404 8.14381C12.287 8.15585 12.3274 8.18492 12.3536 8.22528C12.3798 8.26565 12.3899 8.31437 12.3819 8.36184C12.374 8.4093 12.3485 8.45205 12.3105 8.48165C12.3021 8.4882 11.4548 9.15551 10.4795 10.3778C9.58199 11.5026 8.38887 13.3418 7.80178 15.7163C7.79147 15.758 7.76748 15.795 7.73364 15.8215C7.69981 15.848 7.65808 15.8624 7.61511 15.8624L7.61516 15.8623Z" fill="white"/>
<defs>
<linearGradient id="paint0_linear_63_2693" x1="-0.00522617" y1="12.0016" x2="16.0007" y2="12.0016" gradientUnits="userSpaceOnUse">
<stop stop-color="#D5A331"/>
<stop offset="0.29" stop-color="#F9DF7C"/>
<stop offset="0.67" stop-color="#CB8E17"/>
<stop offset="1" stop-color="#D8A937"/>
</linearGradient>
</defs>
</svg>
