<svg width="164" height="79" viewBox="0 0 164 79" fill="none" xmlns="http://www.w3.org/2000/svg">
<rect x="0.498657" y="1.97913" width="162" height="77" rx="24" transform="rotate(-0.548972 0.498657 1.97913)" fill="white"/>
<rect x="100.704" y="19.3467" width="43" height="43" rx="12" fill="url(#paint0_linear_2010_273)"/>
<g clip-path="url(#clip0_2010_273)">
<path d="M126.384 46.7244C126.022 46.4623 125.579 46.3039 125.104 46.2681C125.036 46.0705 124.975 45.8579 124.919 45.6299C123.187 45.8335 121.122 45.8218 119.49 45.6277C119.399 45.9995 119.292 46.331 119.17 46.6215C118.491 46.4475 117.757 46.6299 117.237 47.1368C116.074 46.3815 114.542 47.2218 114.542 48.5977C114.542 49.5594 115.324 50.3418 116.286 50.3418H128.272C128.382 50.3418 128.49 50.3093 128.581 50.2483C129.155 49.8658 129.497 49.2488 129.497 48.5977C129.497 47.1285 127.847 46.1428 126.384 46.7244ZM125.66 41.4743C125.657 41.8416 125.661 42.2239 125.674 42.6097C126.238 42.7216 126.594 42.8426 126.801 42.9373C126.496 43.0753 125.872 43.2672 124.744 43.4048C123.453 43.5649 121.838 43.6006 120.36 43.4772C119.582 43.412 118.324 43.2595 117.612 42.9354C117.91 42.7999 118.32 42.6916 118.735 42.6095C118.749 42.2241 118.753 41.8418 118.75 41.4741C117.082 41.7686 116.304 42.2343 116.304 42.9347C116.304 43.7154 117.328 44.0349 117.665 44.14C120.217 44.9371 126.434 44.8587 127.778 43.623C128.048 43.3744 128.105 43.1113 128.105 42.9347C128.105 42.2345 127.326 41.7688 125.66 41.4743Z" fill="white"/>
<path d="M129.467 34.336C128.466 32.5476 126.397 31.533 124.773 32.0113C123.352 31.0534 120.942 31.161 119.717 32.1897C117.907 31.4244 115.752 32.3783 115.168 34.3396C114.548 34.5109 113.983 34.8433 113.549 35.2967C112.362 36.5376 112.423 38.3956 113.748 39.5677C114.973 40.6504 116.832 40.7527 118.155 39.8487C118.718 39.9345 119.291 39.8783 119.802 39.703C119.867 40.7536 119.877 41.6205 119.854 42.445C120.521 42.5795 123.889 42.5791 124.554 42.4454C124.527 41.4508 124.556 40.495 124.61 39.6366C125.245 39.9014 125.979 39.9657 126.679 39.8002C127.222 40.2278 127.887 40.4601 128.585 40.4601C130.305 40.4601 131.704 39.0577 131.704 37.3339C131.704 35.9455 130.779 34.7258 129.467 34.336Z" fill="white"/>
</g>
<defs>
<linearGradient id="paint0_linear_2010_273" x1="100.69" y1="40.8511" x2="143.706" y2="40.8511" gradientUnits="userSpaceOnUse">
<stop stop-color="#D5A331"/>
<stop offset="0.29" stop-color="#F9DF7C"/>
<stop offset="0.67" stop-color="#CB8E17"/>
<stop offset="1" stop-color="#D8A937"/>
</linearGradient>
<clipPath id="clip0_2010_273">
<rect width="19" height="19" fill="white" transform="translate(112.704 31.3467)"/>
</clipPath>
</defs>
</svg>
