<svg width="164" height="79" viewBox="0 0 164 79" fill="none" xmlns="http://www.w3.org/2000/svg">
<rect x="0.498657" y="1.97913" width="162" height="77" rx="24" transform="rotate(-0.548972 0.498657 1.97913)" fill="white"/>
<rect x="100.704" y="19.3467" width="43" height="43" rx="12" fill="url(#paint0_linear_3728_1195)"/>
<g clip-path="url(#clip0_3728_1195)">
<path d="M118.639 33.6501C118.946 33.6501 119.195 33.4012 119.195 33.094V31.9028C119.168 31.1663 118.111 31.1659 118.083 31.9028V33.094C118.083 33.4012 118.332 33.6501 118.639 33.6501ZM113.279 37.8195H114.47C115.206 37.7924 115.207 36.7346 114.47 36.7073H113.279C112.542 36.7344 112.542 37.7922 113.279 37.8195ZM115.719 35.1294C116.259 35.6309 117.008 34.8833 116.506 34.3429L115.242 33.0796C114.702 32.5781 113.954 33.3257 114.456 33.8661L115.719 35.1294ZM125.787 48.0242C125.48 48.0242 125.231 48.2732 125.231 48.5803V49.7715C125.258 50.508 126.316 50.5084 126.343 49.7715V48.5803C126.343 48.2732 126.094 48.0242 125.787 48.0242ZM131.147 43.8548H129.956C129.22 43.8819 129.219 44.9397 129.956 44.967H131.147C131.884 44.9399 131.884 43.8821 131.147 43.8548ZM128.707 46.5446C128.167 46.0431 127.419 46.7906 127.921 47.3311L129.184 48.5944C129.724 49.0959 130.472 48.3483 129.971 47.8079L128.707 46.5446ZM124.936 36.3339L125.826 37.2239C126.134 37.532 126.634 37.532 126.942 37.2241L127.832 36.3339C127.954 36.2123 128.032 36.0539 128.055 35.8832L126.716 34.5443C124.064 31.8466 119.363 33.658 119.171 37.3936C119.171 37.7008 119.42 37.9497 119.727 37.9497H121.155C121.463 37.9497 121.712 37.7008 121.712 37.3936C121.923 35.8756 123.853 35.2302 124.936 36.3339Z" fill="white"/>
<path d="M130.408 32.6418C128.83 31.0633 126.351 30.9279 124.618 32.235C125.743 32.4396 126.828 33.0275 127.659 33.9145C129.119 34.1974 129.69 36.0708 128.618 37.1203L127.728 38.0104C126.987 38.7525 125.782 38.7525 125.039 38.0104L124.149 37.1204C123.71 36.671 122.931 36.924 122.819 37.5148C122.791 37.9102 122.624 38.2676 122.367 38.5392C123.6 41.2901 127.401 41.9709 129.509 39.7999C129.509 39.8 130.408 38.9007 130.408 38.9007C132.135 37.1735 132.135 34.3691 130.408 32.6418ZM124.699 43.7245H123.271C122.964 43.7245 122.715 43.9735 122.715 44.2806C122.503 45.799 120.574 46.4441 119.49 45.3404L118.6 44.4504C118.292 44.1423 117.792 44.1422 117.484 44.4502L116.594 45.3404C116.472 45.462 116.394 45.6204 116.371 45.791L117.71 47.13C120.362 49.8277 125.063 48.0163 125.256 44.2807C125.256 43.9735 125.007 43.7245 124.699 43.7245Z" fill="white"/>
<path d="M116.767 47.7599C115.307 47.4769 114.737 45.6035 115.808 44.554L116.698 43.664C117.44 42.9218 118.645 42.9218 119.387 43.664L120.277 44.554C120.716 45.0034 121.495 44.7504 121.607 44.1595C121.635 43.7641 121.802 43.4068 122.059 43.1352C120.826 40.3844 117.025 39.7033 114.917 41.8744C114.917 41.8744 114.018 42.7736 114.018 42.7736C110.242 46.766 115.37 52.6096 119.809 49.4394C118.684 49.2348 117.599 48.6468 116.767 47.7599Z" fill="white"/>
</g>
<defs>
<linearGradient id="paint0_linear_3728_1195" x1="100.69" y1="40.8511" x2="143.706" y2="40.8511" gradientUnits="userSpaceOnUse">
<stop stop-color="#D5A331"/>
<stop offset="0.29" stop-color="#F9DF7C"/>
<stop offset="0.67" stop-color="#CB8E17"/>
<stop offset="1" stop-color="#D8A937"/>
</linearGradient>
<clipPath id="clip0_3728_1195">
<rect width="19" height="19" fill="white" transform="translate(112.704 31.3467)"/>
</clipPath>
</defs>
</svg>
