<svg width="163" height="78" viewBox="0 0 163 78" fill="none" xmlns="http://www.w3.org/2000/svg">
<rect width="162" height="77" rx="24" transform="matrix(0.999998 -0.00197229 -0.00197229 -0.999998 0.619606 77.6779)" fill="white"/>
<rect width="43" height="43" rx="12" transform="matrix(1 0 0 -1 100.734 60.2728)" fill="url(#paint0_linear_3728_1196)"/>
<g clip-path="url(#clip0_3728_1196)">
<path d="M118.669 45.9694C118.976 45.9694 119.225 46.2184 119.225 46.5255V47.7167C119.198 48.4532 118.14 48.4536 118.113 47.7167V46.5255C118.113 46.2184 118.362 45.9694 118.669 45.9694ZM113.309 41.8H114.5C115.236 41.8271 115.237 42.8849 114.5 42.9122H113.309C112.572 42.8851 112.572 41.8273 113.309 41.8ZM115.749 44.4901C116.289 43.9886 117.037 44.7362 116.535 45.2766L115.272 46.5399C114.732 47.0414 113.984 46.2938 114.485 45.7534L115.749 44.4901ZM125.817 31.5953C125.51 31.5953 125.261 31.3464 125.261 31.0392V29.848C125.288 29.1115 126.345 29.1111 126.373 29.848V31.0392C126.373 31.3464 126.124 31.5953 125.817 31.5953ZM131.177 35.7647H129.986C129.249 35.7376 129.249 34.6798 129.986 34.6525H131.177C131.914 34.6796 131.914 35.7374 131.177 35.7647ZM128.737 33.0749C128.197 33.5764 127.448 32.8289 127.95 32.2884L129.214 31.0251C129.754 30.5236 130.502 31.2712 130 31.8116L128.737 33.0749ZM124.966 43.2856L125.856 42.3956C126.164 42.0875 126.664 42.0875 126.972 42.3954L127.862 43.2856C127.984 43.4072 128.062 43.5656 128.085 43.7363L126.746 45.0752C124.094 47.7729 119.392 45.9615 119.2 42.2259C119.2 41.9188 119.449 41.6698 119.756 41.6698H121.185C121.492 41.6698 121.741 41.9188 121.741 42.2259C121.953 43.744 123.883 44.3893 124.966 43.2856Z" fill="white"/>
<path d="M130.438 46.9777C128.859 48.5562 126.381 48.6916 124.647 47.3846C125.772 47.18 126.857 46.592 127.689 45.705C129.149 45.4221 129.719 43.5487 128.648 42.4992L127.758 41.6091C127.016 40.867 125.811 40.867 125.069 41.6091L124.179 42.4991C123.74 42.9485 122.961 42.6955 122.849 42.1047C122.821 41.7093 122.653 41.3519 122.396 41.0803C123.63 38.3294 127.431 37.6486 129.539 39.8196C129.539 39.8195 130.438 40.7188 130.438 40.7188C132.165 42.446 132.165 45.2504 130.438 46.9777ZM124.729 35.895H123.3C122.993 35.895 122.744 35.646 122.744 35.3389C122.532 33.8205 120.604 33.1754 119.52 34.2791L118.63 35.1691C118.322 35.4772 117.822 35.4773 117.514 35.1693L116.624 34.2791C116.502 34.1575 116.424 33.9991 116.401 33.8285L117.74 32.4895C120.392 29.7918 125.093 31.6033 125.285 35.3388C125.285 35.646 125.036 35.895 124.729 35.895Z" fill="white"/>
<path d="M116.797 31.8596C115.337 32.1426 114.766 34.016 115.837 35.0655L116.728 35.9555C117.469 36.6977 118.674 36.6977 119.416 35.9555L120.307 35.0655C120.746 34.6161 121.525 34.8691 121.637 35.46C121.665 35.8554 121.832 36.2127 122.089 36.4843C120.856 39.2351 117.055 39.9162 114.947 37.7451C114.947 37.7452 114.048 36.8459 114.048 36.8459C110.271 32.8535 115.4 27.0099 119.838 30.1801C118.713 30.3847 117.628 30.9727 116.797 31.8596Z" fill="white"/>
</g>
<defs>
<linearGradient id="paint0_linear_3728_1196" x1="-0.0140453" y1="21.5044" x2="43.0018" y2="21.5044" gradientUnits="userSpaceOnUse">
<stop stop-color="#D5A331"/>
<stop offset="0.29" stop-color="#F9DF7C"/>
<stop offset="0.67" stop-color="#CB8E17"/>
<stop offset="1" stop-color="#D8A937"/>
</linearGradient>
<clipPath id="clip0_3728_1196">
<rect width="19" height="19" fill="white" transform="matrix(1 0 0 -1 112.734 48.2728)"/>
</clipPath>
</defs>
</svg>
