<svg width="164" height="79" viewBox="0 0 164 79" fill="none" xmlns="http://www.w3.org/2000/svg">
<rect x="0.498657" y="1.97913" width="162" height="77" rx="24" transform="rotate(-0.548972 0.498657 1.97913)" fill="white"/>
<rect x="100.704" y="19.3467" width="43" height="43" rx="12" fill="url(#paint0_linear_3731_1201)"/>
<g clip-path="url(#clip0_3731_1201)">
<path d="M130.121 39.9616C129.684 39.9616 129.329 39.6071 129.329 39.17C129.329 36.9494 128.465 34.8626 126.895 33.2918C126.585 32.9823 126.585 32.4821 126.895 32.1724C127.204 31.8629 127.705 31.8629 128.014 32.1724C129.883 34.0415 130.912 36.5267 130.912 39.17C130.912 39.6071 130.558 39.9616 130.121 39.9616ZM114.287 39.9616C113.85 39.9616 113.496 39.6071 113.496 39.17C113.496 36.5267 114.525 34.0415 116.394 32.1724C116.704 31.8629 117.204 31.8629 117.513 32.1724C117.823 32.4821 117.823 32.9823 117.513 33.2918C115.943 34.8617 115.079 36.9494 115.079 39.17C115.079 39.6071 114.724 39.9616 114.287 39.9616ZM129.629 44.7363C128.432 43.7244 127.746 42.2456 127.746 40.6789V38.4717C127.746 35.6859 125.676 33.3798 122.996 32.9935V32.1384C122.996 31.7006 122.641 31.3467 122.204 31.3467C121.767 31.3467 121.412 31.7006 121.412 32.1384V32.9935C118.731 33.3798 116.662 35.6859 116.662 38.4717V40.6789C116.662 42.2456 115.976 43.7245 114.772 44.7425C114.62 44.8724 114.498 45.0337 114.414 45.2154C114.331 45.397 114.287 45.5946 114.287 45.7946C114.287 46.5587 114.909 47.1801 115.673 47.1801H128.735C129.499 47.1801 130.121 46.5587 130.121 45.7946C130.121 45.3893 129.944 45.0062 129.629 44.7363ZM122.204 50.3467C123.638 50.3467 124.837 49.3246 125.113 47.9717H119.296C119.571 49.3246 120.77 50.3467 122.204 50.3467Z" fill="white"/>
</g>
<defs>
<linearGradient id="paint0_linear_3731_1201" x1="100.69" y1="40.8511" x2="143.706" y2="40.8511" gradientUnits="userSpaceOnUse">
<stop stop-color="#D5A331"/>
<stop offset="0.29" stop-color="#F9DF7C"/>
<stop offset="0.67" stop-color="#CB8E17"/>
<stop offset="1" stop-color="#D8A937"/>
</linearGradient>
<clipPath id="clip0_3731_1201">
<rect width="19" height="19" fill="white" transform="translate(112.704 31.3467)"/>
</clipPath>
</defs>
</svg>
