<svg width="163" height="78" viewBox="0 0 163 78" fill="none" xmlns="http://www.w3.org/2000/svg">
<rect width="162" height="77" rx="24" transform="matrix(-0.999998 0.00197229 0.00197229 0.999998 162.467 0.358154)" fill="white"/>
<rect width="43" height="43" rx="12" transform="matrix(-1 0 0 1 62.3531 17.7632)" fill="url(#paint0_linear_2010_276)"/>
<g clip-path="url(#clip0_2010_276)">
<path d="M48.9677 47.9716H46.9885C46.2245 47.9716 45.6031 47.3501 45.6031 46.5862L45.6031 37.482C45.6031 36.718 46.2245 36.0966 46.9885 36.0966H48.9677C49.7316 36.0966 50.3531 36.718 50.3531 37.482L50.3531 46.5862C50.3531 47.3501 49.7316 47.9716 48.9677 47.9716ZM40.2348 30.357C41.0265 30.357 41.4223 30.7528 41.4223 32.732C41.4223 34.613 43.2439 36.1267 44.4156 36.9065V46.7136C43.1481 47.3002 40.6108 48.1695 36.6723 48.1695H35.4056C33.8619 48.1695 32.5477 47.0612 32.2865 45.5412L31.3998 40.3953C31.3211 39.9407 31.3427 39.4744 31.4632 39.029C31.5837 38.5836 31.8001 38.1699 32.0972 37.817C32.3944 37.464 32.7651 37.1803 33.1834 36.9857C33.6017 36.7911 34.0576 36.6903 34.519 36.6903H38.2556C38.2556 36.6903 37.6619 35.5028 37.6619 33.5237C37.6619 31.1487 39.4431 30.357 40.2348 30.357Z" fill="white"/>
</g>
<defs>
<linearGradient id="paint0_linear_2010_276" x1="-0.0140453" y1="21.5044" x2="43.0018" y2="21.5044" gradientUnits="userSpaceOnUse">
<stop stop-color="#D5A331"/>
<stop offset="0.29" stop-color="#F9DF7C"/>
<stop offset="0.67" stop-color="#CB8E17"/>
<stop offset="1" stop-color="#D8A937"/>
</linearGradient>
<clipPath id="clip0_2010_276">
<rect width="19" height="19" fill="white" transform="matrix(-1 0 0 1 50.3531 29.7632)"/>
</clipPath>
</defs>
</svg>
